<svg data-name="Layer 1" xmlns="http://www.w3.org/2000/svg" xmlns:xlink="http://www.w3.org/1999/xlink" viewBox="0 0 1030.01 729.86"><defs><linearGradient id="a" x1="889.13" y1="701.85" x2="889.13" y2="363.3" gradientUnits="userSpaceOnUse"><stop offset="0" stop-color="gray" stop-opacity=".25"/><stop offset=".54" stop-color="gray" stop-opacity=".12"/><stop offset="1" stop-color="gray" stop-opacity=".1"/></linearGradient><linearGradient id="b" x1="376.53" y1="777.06" x2="376.53" y2="381.85" xlink:href="#a"/></defs><ellipse cx="814.66" cy="585.22" rx="211.36" ry="41.08" fill="#6c63ff" opacity=".1"/><g opacity=".5"><path d="M633.62 103.56c-2.85.81-6.34 2.92-8.06 8.69-3.37 11.31 4.46 19 1.88 30.79a23 23 0 01-4 8.64c-3.15 4.27-6.57 6.29-9.89 9.28a29.5 29.5 0 00-8.69 14.27 39.5 39.5 0 00-.39 18.55c1.18 5.12 3.19 8.85 4.95 13a96 96 0 015.11 16.37 39.87 39.87 0 011.12 8.32 73.21 73.21 0 01-1 11.12l-4.79 33.42a100.43 100.43 0 00-1.31 13.21 65.61 65.61 0 001.53 13.19c1.68 8.84 3.49 18 7.34 22.68s10.41 3 14.44-6.47c3.83-9.06 3.92-21.15 7.3-30.83 5.33-15.25 15.92-17.3 21.8-31.85 5.64-14 3.91-31.08 6.77-47 2-11.41 6.41-21.81 9-33.08 3.72-16.23 3.35-33.08.38-45.56a60.55 60.55 0 00-14.18-27.54c-2.49-2.75-5.16-5.2-8.29-5.45-3.33-.26-6.24 3.93-9.53 5.19-3.8 1.49-7.62-.04-11.49 1.06z" fill="#6c63ff"/><path d="M651.65 98.16s-5.64 144.34-29.36 229.45M625.42 112.93s25.35 23.08 20.54 67M604.15 178.61s41.61 8.37 38.52 33.26M677.18 130s-16.84 14.74-31.84 56.49M660.73 256.18s-11.49 9-20.71-22.51M611.15 274.59s23.43-3.06 25.59-17.73" fill="none" stroke="#535461" stroke-miterlimit="10" stroke-width="2"/></g><path d="M690.26 6.75c-5.8.86-12.78 3.55-15.65 11.84-5.63 16.26 11.48 28.57 7.54 45.56a25.53 25.53 0 01-7.14 12.25c-6 5.91-12.86 8.49-19.36 12.5s-13.25 10.32-16.3 20c-2.93 9.31-1.66 19.59 1.39 27.27s7.66 13.41 11.78 19.73a133.69 133.69 0 0112.49 24.7 46.94 46.94 0 013.32 12.33c.53 5.2-.14 10.79-.81 16.26l-5.95 48.74c-.79 6.48-1.59 13.06-1.14 19.3.51 7.19 2.64 13.47 4.74 19.6 4.52 13.22 9.36 27 17.89 34.28s21.91 5.72 29.12-7.82c6.86-12.89 5.6-30.68 11.45-44.53 9.22-21.83 30.9-23.6 41.33-44.32 10-19.88 4.41-45.31 8.43-68.41 2.88-16.55 10.68-31.35 14.68-47.64 5.77-23.47 3-48.32-4.62-67s-19.67-32-32.6-42.23c-5.48-4.35-11.29-8.28-17.8-9-6.92-.77-12.45 5.05-19.1 6.52-7.74 1.61-15.82-1.1-23.69.07z" fill="#6c63ff"/><path d="M726.94.93s5.46 211.89-33.56 334.42M674.39 19.61s55.2 37 50.47 101.16M638.16 113.78s87.12 17.26 83.68 53.54M783.55 50.85s-33.11 19.71-59.19 79.41M764.44 234.72s-22.7 12-45.53-35.61M664.01 255.93s48.13-1.73 50.87-23.08" fill="none" stroke="#535461" stroke-miterlimit="10" stroke-width="2"/><path d="M67.25 578.59s8.38 11-3.87 27.5-22.37 30.52-18.26 40.84c0 0 18.48-30.73 33.52-31.16s5.16-18.7-11.39-37.18z" fill="#6c63ff"/><path d="M67.25 578.59a13.57 13.57 0 011.76 3.44c14.68 17.24 22.49 33.33 8.39 33.74-13.14.38-28.9 23.87-32.68 29.81a12.74 12.74 0 00.45 1.35s18.48-30.73 33.52-31.16 5.11-18.7-11.44-37.18z" opacity=".1"/><path d="M82.83 592.56c0 3.86-.43 7-1 7s-1-3.13-1-7 .54-2 1.07-2 .93-1.86.93 2z" fill="#ffd037"/><path d="M88.18 597.16c-3.39 1.85-6.34 3-6.59 2.49s2.28-2.35 5.67-4.19 2.05-.5 2.31 0 1.99-.15-1.39 1.7z" fill="#ffd037"/><path d="M23.01 578.59s-8.38 11 3.87 27.5 22.35 30.51 18.26 40.83c0 0-18.48-30.73-33.52-31.16s-5.18-18.69 11.39-37.17z" fill="#6c63ff"/><path d="M23.01 578.59a13.57 13.57 0 00-1.71 3.44c-14.68 17.24-22.49 33.33-8.39 33.74 13.14.38 28.9 23.87 32.68 29.81a12.74 12.74 0 01-.45 1.35s-18.48-30.73-33.52-31.16-5.18-18.7 11.39-37.18z" opacity=".1"/><path d="M7.41 592.56c0 3.86.43 7 1 7s1-3.13 1-7-.54-2-1.07-2-.93-1.86-.93 2z" fill="#ffd037"/><path d="M2.06 597.16c3.39 1.85 6.34 3 6.59 2.49s-2.28-2.35-5.67-4.19-2.05-.5-2.31 0-1.99-.15 1.39 1.7z" fill="#ffd037"/><path d="M10.08 645.49s23.43-.72 30.49-5.75 36-11 37.79-3 35.21 40.11 8.76 40.32-61.46-4.12-68.51-8.41-8.53-23.16-8.53-23.16z" fill="#a8a8a8"/><path d="M87.59 674.28c-26.45.21-61.46-4.12-68.51-8.41-5.37-3.27-7.51-15-8.22-20.41h-.78s1.48 18.9 8.53 23.19 42.06 8.63 68.51 8.41c7.64-.06 10.27-2.78 10.13-6.8-1.06 2.46-3.97 3.98-9.66 4.02z" opacity=".2"/><path d="M982.36 574.04a11.67 11.67 0 003.83-5.78c.5-2.3-.48-5.05-2.68-5.89-2.46-.94-5.09.76-7.08 2.49s-4.28 3.69-6.89 3.32a10.48 10.48 0 003.24-9.81 4.1 4.1 0 00-.9-2c-1.37-1.46-3.84-.83-5.48.32-5.2 3.66-6.65 10.72-6.68 17.08-.52-2.29-.08-4.68-.1-7s-.66-5-2.64-6.22a8 8 0 00-4-.95c-2.34-.09-4.94.15-6.54 1.86-2 2.12-1.47 5.69.26 8s4.35 3.8 6.77 5.42a15 15 0 014.84 4.61 4.57 4.57 0 01.36.82h14.65a40.83 40.83 0 009.04-6.27z" fill="#6c63ff"/><path d="M146.73 480.32c31.82 40.46 19.46 99.57-.76 146.9-6.77 15.85-14.43 32.62-11.57 49.61 3.49 20.78 22 36 41.52 44 35.5 14.68 78 11.18 110.61-9.11 28.19-17.54 48.38-46.06 77.05-62.8 48-28 109.06-17.43 161.16 1.86 36.86 13.65 77.16 31.41 113.79 17.14 25.77-10 43.59-34.47 53.3-60.37 4.69-12.51 8.09-26 17-36 5.32-5.89 12.26-10.08 19.38-13.6 65-32.21 147-15 210.08-50.68 42.61-24.12 69.89-69.63 82-117.08s10.67-97.21 7.6-146.07c-2.18-34.73-6.09-71.8-28.28-98.61-23.47-28.35-63.76-38.9-100.17-33.51s-69.43 24.69-98.43 47.31c-36.29 28.27-69.94 63.48-114.5 74.94-30.34 7.8-62.26 3.53-93.56 2.06-52.32-2.47-104.65 3-156.68 9-49.81 5.76-100 12.1-147.43 28.3-33.58 11.47-60.5 32.28-92.21 46.82-20.67 9.48-43.21 12.1-62.77 24.17-24.11 14.87-46.2 40.74-40 71 5.82 28.81 35.97 43.25 52.87 64.72z" fill="#6c63ff" opacity=".1"/><ellipse cx="552.35" cy="439.22" rx="427.67" ry="41.08" fill="#6c63ff" opacity=".1"/><ellipse cx="223.66" cy="676.22" rx="211.36" ry="41.08" fill="#6c63ff" opacity=".1"/><path d="M439.72 426.41l-3.35 4.87s3.65 4.87 4 5.48 10.65-.3 10.65-.3l.91-3.65-1.52-4.26z" fill="#e6e6f0"/><path fill="#fdc2cc" d="M327.09 423.67l-6.7 1.21 4.26 8.23 4.57 2.43 4.26 3.04 1.22-3.34-3.05-6.4-4.56-5.17z"/><path d="M436.68 344.52s35.62 8.52 42.31 18c0 0 6.09 5.18 0 14.61s-14.61 30.75-14.61 30.75-6.09 20.7-8.52 22.22-16.44 2.74-17.66-3c0 0 7.91-12.48 7.91-18.27s13.09-33.18 13.09-33.18-29.83-3.35-39.27-1.22 4.27-33.26 16.75-29.91z" fill="#565171"/><path d="M436.68 344.52s35.62 8.52 42.31 18c0 0 6.09 5.18 0 14.61s-14.61 30.75-14.61 30.75-6.09 20.7-8.52 22.22-16.44 2.74-17.66-3c0 0 7.91-12.48 7.91-18.27s13.09-33.18 13.09-33.18-29.83-3.35-39.27-1.22 4.27-33.26 16.75-29.91z" opacity=".1"/><path d="M429.37 352.74c-.07 1.77-.26 3.76-.53 5.9-1.95 15.5-8.3 38.55-8.3 38.55s-6.39 13.7-8.22 22.53-14.31 11-14.31 11-34.1 4-41.1 2.44-18 4.57-23.44 3.65-8.83-13.7-8.83-13.7a66 66 0 0027.4-5.78c14-6.39 34.1-3.35 34.1-3.35a11.45 11.45 0 007-5.78c2.13-4.57 2.13-32.27 1.52-34.1-4-12-3.67-19.7-2.52-24.19a12.07 12.07 0 012.52-5.34z" fill="#565171"/><path d="M429.37 352.74c-.07 1.77-.26 3.76-.53 5.9-3.06.24-11.64.47-18-3.46-6-3.68-14.73-4.93-18.66-5.32a12.07 12.07 0 012.52-5.34z" opacity=".1"/><path d="M433.58 348.93c-1.42 4-3.6 8.69-3.6 8.69s-11.26 1.52-19.18-3.35-20.7-5.48-20.7-5.48c2.07-1.27 3.47-5.13 4.34-8.51a53.93 53.93 0 001.14-5.8s37.44 7.61 39 8.83c.58.48-.04 2.9-1 5.62z" fill="#e6e6f0"/><path d="M500.3 220.62l-45.41 27.41-4.51 2.72v-13.39l3.13-1.5 38.27-18.29s1.83-33.18 6.7-28 1.82 31.05 1.82 31.05z" fill="#fdc2cc"/><path d="M454.89 248.03l-4.51 2.72v-13.39l3.13-1.5a98.54 98.54 0 001.38 12.17z" opacity=".1"/><path d="M419.94 252.93l32.57-18.87s.61 18.27 4.26 21c0 0-13.39 4-18.57 12.48z" fill="#b45181"/><path d="M419.94 252.93l32.57-18.87s.61 18.27 4.26 21c0 0-13.39 4-18.57 12.48z" opacity=".1"/><path d="M500.01 269.02s-15.49 6.75-25.75 9.23a20.22 20.22 0 01-7.13.82c-7-1.22 1.83-10 1.83-10l3.68-.57 19.76-3.08s2.13-30.44 5.78-28 1.83 31.6 1.83 31.6zM434.55 241.62s-13.09 9.74-8.22 21.92-25.27-7.31-25.27-7.31 9.74-14.61 11.87-25.57 21.62 10.96 21.62 10.96z" fill="#fdc2cc"/><path d="M433.58 348.93a69 69 0 00-17.6-4.1c-8.8-1-16.86-2.69-21.53-4.55a53.93 53.93 0 001.14-5.8s37.44 7.61 39 8.83c.57.48-.05 2.9-1.01 5.62zM474.25 278.25a20.22 20.22 0 01-7.13.82c-7-1.22 1.83-10 1.83-10l3.68-.57c1.54 2.37 3.11 6.07 1.62 9.75z" opacity=".1"/><path d="M413.24 247.1s-11.87-.3-16.13 4.57-3.35 18-3.35 18-.89 26.29 5.78 41a2 2 0 01.07 1.51c-.07.18-.07.07-.07.07s-4.26 19.18-8.52 22.53 9.13 7.31 25 9.13 22.22 6.39 22.22 6.39 2.74-3 3-9.74-4.23-55.71-4.23-55.71 16.74 4.26 26.79-.91c0 0 4.57 2.44 8.83-4.26s-3-14-3-14-6.7 6.7-25.27-2.13-25.35-16.75-31.12-16.45z" fill="#b45181"/><path d="M322.22 424.28h-3.65v5.18l3.65 8.22s4.87.91 5.18.91 4.26-.91 4.26-.91l1.22-2.13s-13.4-5.19-10.66-11.27z" fill="#e6e6f0"/><path d="M436.68 429.15l-5.48 12.18 23.14 11 18.27.61s1.52-4.26-4.57-6.39l-4.87-.91s-6.39-11.57-7-17c0 0-6.09 1.22-7 5.78-.01-.1-8.53 4.16-12.49-5.27zM319.48 423.06l-1.86 1.52-8.18 6.7 18.87 25s10.65 4.57 15.53 0c0 0 3-3-3.65-5.48 0 0-5.18.91-5.18-4.26s1.22-10.65 3-11.87c0 0-4.57-1.52-5.78-.3a19.32 19.32 0 00-2.44 3.35s-10.92-4.31-10.31-14.66z" fill="#b45181"/><path d="M412.33 231.27a37 37 0 01-1.22 4.56 15.83 15.83 0 0020.27 8.71 25.18 25.18 0 012.57-2.31s-19.49-21.92-21.62-10.96zM410.65 271.93s9.44 12.48 23.14 12.79" opacity=".1"/><g opacity=".1"><path d="M467.07 284.15a3.44 3.44 0 01-.56-.21q-.44.23-.9.43a5.69 5.69 0 001.46-.22zM470.31 266.93a15.06 15.06 0 00-1.06-1.22s-2 2-6.94 2.38a16.8 16.8 0 008-1.16zM439.72 284.85l.06.65a60.46 60.46 0 0012.18 1 63.38 63.38 0 01-12.24-1.65zM418.72 343.93c-15.83-1.83-29.22-5.78-25-9.13s8.52-22.53 8.52-22.53 0 .11.07-.07a2 2 0 00-.07-1.51c-6.67-14.75-5.78-41-5.78-41s-.91-13.09 3.35-18c3.17-3.63 10.56-4.38 14.13-4.53a6.47 6.47 0 00-1 0s-11.87-.3-16.13 4.57-3.35 18-3.35 18-.89 26.29 5.78 41a2 2 0 01.07 1.51c-.07.18-.07.07-.07.07s-4.23 19.12-8.53 22.47 9.13 7.31 25 9.13 22.22 6.39 22.22 6.39a7.8 7.8 0 00.84-1.23c-3.09-1.49-9.45-3.94-20.05-5.14z"/></g><circle cx="426.33" cy="229.14" r="15.83" fill="#fdc2cc"/><path d="M448.86 222.06c-1.31 3.28-5.22 4.52-8.65 5.37-4.9 1.2-10.18 2.38-14.87.52a3.25 3.25 0 00-2-.39 2.66 2.66 0 00-1.32 1.15c-5.17 7.36-4.33 17.17-5.67 26.07-.42 2.77-1.13 5.63-3 7.7-3.64 4-10.51 3.85-13.86 8.1-2.21 2.8-2.23 6.69-2.21 10.26q0 5.71-.1 11.43c-.06 2.5-.18 5.09-1.31 7.31-1.92 3.76-6.2 5.55-10.15 7-2.46.92-5 1.85-7.64 1.6s-5.28-2-5.62-4.64c-.47-3.58 3.22-6.08 5.76-8.66 4.06-4.11 5.73-10.09 5.88-15.87a17 17 0 00-1-6.87c-.93-2.27-2.59-4.18-3.59-6.42-3.08-6.9.72-14.88 5.27-20.92s10.14-11.93 11.11-19.42a26.93 26.93 0 01.69-4.81c.7-2.18 2.36-8.2 4.19-9.58a21.77 21.77 0 0110-4.16c2.81-.41 5.68-.26 8.47-.8 3.26-.63 6.29-2.18 9.55-2.76 7.05-1.25 14.7 6.94 17.79 13.4.85 1.98 3.08 3.38 2.28 5.39z" opacity=".1"/><path d="M448.86 221.45c-1.31 3.28-5.22 4.52-8.65 5.37-4.9 1.2-10.18 2.38-14.87.52a3.25 3.25 0 00-2-.39 2.66 2.66 0 00-1.32 1.15c-5.17 7.36-4.33 17.17-5.67 26.07-.42 2.77-1.13 5.63-3 7.7-3.64 4-10.51 3.85-13.86 8.1-2.21 2.8-2.23 6.69-2.21 10.26q0 5.71-.1 11.43c-.06 2.5-.18 5.09-1.31 7.31-1.92 3.76-6.2 5.55-10.15 7-2.46.92-5 1.85-7.64 1.6s-5.28-2-5.62-4.64c-.47-3.58 3.22-6.08 5.76-8.66 4.06-4.11 5.73-10.09 5.88-15.87a17 17 0 00-1-6.87c-.93-2.27-2.59-4.18-3.59-6.42-3.08-6.9.72-14.88 5.27-20.92s10.14-11.93 11.11-19.42a26.93 26.93 0 01.69-4.81c.7-2.18 2.36-8.2 4.19-9.58a21.77 21.77 0 0110-4.16c2.81-.41 5.68-.26 8.47-.8 3.26-.63 6.29-2.18 9.55-2.76 7.05-1.25 14.7 6.94 17.79 13.4.85 1.98 3.08 3.38 2.28 5.39z" fill="#f569bc"/><path d="M500.01 191.02h263.17v263.15H500.01z" fill="#f7df1e"/><path d="M569.22 410.93l20.14-12.19c3.89 6.89 7.42 12.72 15.9 12.72 8.13 0 13.25-3.18 13.25-15.54v-84.09h24.73v84.43c0 25.61-15 37.27-36.92 37.27-19.78 0-31.26-10.25-37.09-22.61m87.44-2.65l20.13-11.66c5.3 8.66 12.19 15 24.38 15 10.25 0 16.78-5.12 16.78-12.19 0-8.48-6.71-11.48-18-16.43l-6.18-2.65c-17.84-7.59-29.68-17.13-29.68-37.27 0-18.55 14.13-32.68 36.21-32.68 15.72 0 27 5.48 35.15 19.78l-19.25 12.37c-4.24-7.6-8.83-10.6-15.9-10.6-7.24 0-11.84 4.59-11.84 10.6 0 7.42 4.59 10.42 15.19 15l6.18 2.65c21 9 32.86 18.19 32.86 38.86 0 22.26-17.49 34.45-41 34.45-23 0-37.8-11-45-25.26"/><path d="M963.61 685.28S953.34 686 947 675a36.88 36.88 0 00-4.37-6.21 21 21 0 01-3.07-11.15c.35-8.15-8.15-52.79-8.15-52.79s1.06-17-7.44-27.63c-5.6-7-13.65-27-18.5-39.92a2.67 2.67 0 001.14.6l-.2-1.11h.2L904.1 523a62.88 62.88 0 01-9.16-13.88l.57-.12 7.52-1.58s12.22-17.37 13-25.91h2.41a294 294 0 0133.86 1.77c0-.05-.08-.27-.18-.62a42.5 42.5 0 01-1.1-5.23h.7l7-.46s24.09-26.92 15.23-31.88-18.07 22.32-18.07 22.32l-3 .54-.81.15c.08-.12.16-.23.25-.34S913 466 906.93 456.42c0 0-17.36-13.82-18.07-23a10.39 10.39 0 00-6.24-8.84 13.62 13.62 0 00-6.89-1.29l-8.13.56.57 1h-.23a27.35 27.35 0 01-1.28-3.6h.17c-.06-.25-.11-.5-.16-.75a19.13 19.13 0 0014.09-23.56 7.65 7.65 0 002.39-.07c3-.61 5.11-3.65 5.19-6.69v-.59-.12a10.28 10.28 0 00-3.95-7.9c-1.62-1.35-3.56-2.31-5-3.81-1.75-1.79-2.71-4.19-4.07-6.3a18.7 18.7 0 00-9.6-7.47c-2.93-1-6.53-1.1-8.78 1-1.16 1.09-1.83 2.67-3.13 3.59-1.87 1.34-4.41.94-6.7 1.21a12.78 12.78 0 00-9.63 7.21 16.61 16.61 0 00-1.58 7.62 20.35 20.35 0 00.64 5.35c.44 1.74 1.09 3.42 1.57 5.16 1 3.6 1.23 7.39 2.38 10.94a13.77 13.77 0 004.43 6.73l-.34 1.46c-.22 0-5.74 1.23-9.55 9.56-3 6.57-13.21 13.35-17.7 16.09a7.38 7.38 0 00-3.34 4.64 24.1 24.1 0 00-.57 5.89c-.08 4.27.81 10.18 4.24 17.67 7.79 17 13.46 24.44 13.46 24.44s.43 5.21.46 10.7c0 4.09-.3 8.16-1.17 10.2-.74 1.72-1 6.11-.94 11.13 0 9.62.94 22.17.94 22.17s2.71.52 6.9 1.13l2.61 45.92a22.08 22.08 0 01-5 15.34 33.94 33.94 0 01-6.29 6c-7.44 5.31-23.38 61.29-23.38 61.29s.78 0 2.06.15l-4.9 13.67s19.58 15 31.49 10.9a11.54 11.54 0 014-.56c2.35 0 7.38-1.86 4.58-4.31a181.52 181.52 0 01-15.27-15.88 8.12 8.12 0 011.1.65v-.11l.17.11s0-.55.13-1.45l-.17-.06c.36-3.68 1.5-13 3.76-14.08 2.83-1.42 23.74-42.87 23.74-42.87l20.9-53.85s16.65 28.7 30.82 33.65v12s7.79 35.43 10.63 39.32 0 19.48 0 19.48a9.71 9.71 0 001.91 1.68l-2.27 12.84s16.3-.71 43.93 7.79c-.02.05 10.61-4.55 1.75-10.22zM898.43 500l-3.45.86-.68.17c-.07-.43-.12-.68-.12-.68a7 7 0 01-2.51.61 46.15 46.15 0 01-2.1-11.95 80.52 80.52 0 01-2.11-14.8c0-2.58.43-4.83 1.4-6.1l1.15.09.8.76.06.05.41.37.43.38.07.06.46.41.08.07.47.4.53.44.12.1.56.45.55.44.13.1.61.46.13.09.58.43.1.07.66.47.16.11.7.48h.06l.68.45.16.11.73.47.16.1.68.42.13.08.78.46.19.11.81.45h.06l.79.42.19.1.84.42.17.08.78.36.15.07.88.38.21.09.91.37c-5.65 6.22-8.55 20.72-8.55 20.72z" transform="translate(-84.99 -85.07)" fill="url(#a)"/><path d="M726.06 583.09l-6.57 18.33s18 13.8 29.7 10.94a32.69 32.69 0 015.37-.87c2.42-.18 6.59-1.95 4-4.19-8.3-7.26-19.37-20.75-19.37-20.75zM835.35 581.36L832.24 599s15.91-.69 42.89 7.61c0 0 10.38-4.5 1.73-10 0 0-10 .69-16.25-10s-10-9.34-10-9.34z" fill="#4f4d59"/><path d="M753.01 453.4l3 53.68a22.2 22.2 0 01-5.29 15.7 32.54 32.54 0 01-5.71 5.33c-7.26 5.19-22.83 59.83-22.83 59.83s17.64 1 22.48 4.5c0 0 1-13.83 3.8-15.22s23.17-41.85 23.17-41.85l20.41-52.57s16.25 28 30.09 32.86v11.76s7.61 34.59 10.38 38.39 0 19 0 19 8 10 26.28-.69c0 0-5.88-6.57-5.53-14.53s-8-51.53-8-51.53 1-16.6-7.26-27-21.99-50.13-21.99-50.13l-9.52-20.48z" fill="#c48c96"/><g opacity=".1"><path d="M725.54 587.93s15.56-54.64 22.83-59.83a33 33 0 006-5.68 22 22 0 005-15.34l-3.05-53.69 51-31.44-.69-1.49-53.42 32.94 3.05 53.69a22 22 0 01-5 15.34 33 33 0 01-6 5.68c-7.25 5.18-22.83 59.82-22.83 59.82s17.64 1 22.48 4.5c0 0 0-.54.13-1.41-6.81-2.34-19.5-3.09-19.5-3.09zM835.87 584.82s2.77-15.22 0-19-10.38-38.39-10.38-38.39v-11.78c-13.83-4.84-30.09-32.86-30.09-32.86l-1.2 3.14c4.69 7.44 17.2 25.9 28.19 29.74v11.76s7.61 34.59 10.38 38.39 0 19 0 19 3.86 4.86 12.38 4.2c-6.37-.53-9.28-4.2-9.28-4.2z"/></g><path d="M872.01 393.22l-6.79.45-3.58.24v-8.65l4.7-.85 2.91-.53s9-26.63 17.64-21.79-14.88 31.13-14.88 31.13zM763.07 321.93s-4.5 17.29-5.88 28 32.16 2.08 32.16 2.08-12.8-15.56-5.53-23.86z" fill="#714b4f"/><path d="M799.38 393.93l.69 6.57-10.72-.69-10.72-9.34-10.72-30.1-6.9-10.73-5.19-6.57 2.08-8s.95.83 2.55 2.05c5.27 4 17.62 12.41 26.65 10.09a10.76 10.76 0 001.23-.39l13.49 23.17z" fill="#e6e6f0"/><path d="M760.65 333.04s-5.53 1-9.34 9.34c-2.92 6.38-12.8 13-17.21 15.67a7.38 7.38 0 00-3.35 4.66c-.89 3.94-1.23 11.29 3.61 21.86 7.61 16.6 13.14 23.86 13.14 23.86s1.38 16.6-.69 21.44 0 31.47 0 31.47 36.31 6.92 48.42 0 10.38-33.55 10.38-33.55 11.41 24.21 15.56 24.9l-2.42-13.49s-13.49-14.53-14.18-33.2c0 0-4.15-16.95-.69-21.44 0 0 58.45 4.84 61.91.69 0 0-38.39-1.73-44.27-11.07 0 0-16.95-13.49-17.64-22.48a9.94 9.94 0 00-5.19-8.15 13.54 13.54 0 00-7.75-1.73l-7.81.54s13.49 23.86 12.8 27 .69 28.36.69 28.36-15.61-33.55-22.48-37.35-14.88-19.44-14.88-19.44l1.38-7.9" opacity=".1"/><path d="M799.38 393.93l.69 6.57-10.72-.69-10.72-9.34-10.72-30.1-6.9-10.73-5.19-6.57 2.08-8s.95.83 2.55 2.05l-.48 2.73s8 15.62 14.87 19.43 22.48 37.35 22.48 37.35-1.38-25.25-.69-28.36c.47-2.11-5.59-13.77-9.53-21.06a10.76 10.76 0 001.23-.39l13.49 23.17zM865.22 393.67l-3.58.24v-8.65l4.7-.85c-1.64 2.17-1.58 6.01-1.12 9.26z" opacity=".1"/><path d="M760.65 332.01s-5.53 1-9.34 9.34c-2.92 6.38-12.8 13-17.21 15.67a7.38 7.38 0 00-3.35 4.66c-.89 3.94-1.23 11.29 3.61 21.86 7.61 16.6 13.14 23.86 13.14 23.86s1.38 16.6-.69 21.44 0 31.47 0 31.47 36.31 6.92 48.42 0 10.38-33.55 10.38-33.55 11.4 24.17 15.56 24.91l-2.42-13.49s-13.49-14.53-14.18-33.2c0 0-4.15-16.95-.69-21.44 0 0 13.49 14.53 28.71 14.18a286.36 286.36 0 0133.2 1.73s-3.46-11.07 0-15.22c0 0-38.39-1.73-44.27-11.07 0 0-16.95-13.49-17.64-22.48a9.94 9.94 0 00-5.19-8.15 13.54 13.54 0 00-7.75-1.73l-7.81.54s13.49 23.86 12.8 27 .69 28.36.69 28.36-15.61-33.57-22.48-37.37-14.88-19.4-14.88-19.4l1.38-7.9" fill="#c48c96"/><path d="M753.01 368.32s8.3 28 13.14 31.47 34.24 21.1 42.89 16.95c0 0 2.08 10.38-1 12.8 0 0-32.25-1.26-32.51-1.38 0 0-21.1-2.77-24.56-13.14s-7.61-28-7.61-28z" opacity=".1"/><ellipse cx="797.31" cy="398.24" rx="1.21" ry="1.73" fill="#ba7855"/><ellipse cx="800.76" cy="410.34" rx="1.21" ry="1.73" fill="#ba7855"/><g opacity=".1"><path d="M749.24 459.93s-2.08-26.63 0-31.47.69-21.44.69-21.44-5.53-7.26-13.14-23.86c-4.85-10.57-4.5-17.92-3.61-21.86a7.38 7.38 0 013.35-4.66c4.41-2.7 14.28-9.29 17.21-15.67 2.15-4.68 4.84-7.05 6.78-8.23l.13-.76s-5.53 1-9.34 9.34c-2.92 6.38-12.8 13-17.21 15.67a7.38 7.38 0 00-3.35 4.66c-.89 3.94-1.23 11.29 3.61 21.86 7.61 16.6 13.14 23.86 13.14 23.86s1.38 16.6-.69 21.44 0 31.47 0 31.47 25.94 4.94 41.28 2.29c-15.49 1.85-38.85-2.64-38.85-2.64zM795.92 368.32c-.47 2.13 0 14.66.39 22.34 1.67 3.41 2.72 5.68 2.72 5.68s-1.38-25.25-.69-28.36c.66-3-11.49-24.66-12.7-26.8l-2.52.17s13.5 23.86 12.8 26.97zM835.01 397.37c-15.22.35-28.71-14.18-28.71-14.18a5.54 5.54 0 00-.87 1.87c4 3.72 15 12.93 27.16 12.65a286.36 286.36 0 0133.2 1.73s-.07-.23-.18-.62a275.32 275.32 0 00-30.6-1.45zM808.01 426.42s.14 2.16.06 5.4c3.6 7.14 10.15 19.35 13.08 19.84l-.51-2.84c-5.03-6.32-12.63-22.4-12.63-22.4z"/></g><path d="M817.71 422.93l-7.35 1.55-5.8 1.22 3.11-8.65 2.17-.54 3.37-.84s4.84-24.21 14.53-22.48-10.03 29.74-10.03 29.74z" fill="#714b4f"/><path d="M810.37 424.51l-5.8 1.22 3.11-8.65 2.17-.54a34.54 34.54 0 01.52 7.97z" opacity=".1"/><path d="M753.01 367.63s8.3 28 13.14 31.47 34.24 21.1 42.89 16.95c0 0 2.08 10.38-1 12.8 0 0-32.25-1.26-32.51-1.38 0 0-21.1-2.77-24.56-13.14s-7.61-28-7.61-28z" fill="#c48c96"/><path d="M763.41 322.67s-.7 2.71-1.64 6.65a18.67 18.67 0 0020.61 9.5c-.83-3.55-.65-7.14 1.78-9.92z" opacity=".1"/><circle cx="777.94" cy="319.9" r="18.68" fill="#714b4f"/><path d="M794.16 314.76a10 10 0 004.16.26 6.85 6.85 0 005.06-6.53 10 10 0 00-3.85-7.71c-1.58-1.32-3.47-2.25-4.92-3.72-1.71-1.75-2.65-4.09-4-6.15a18.25 18.25 0 00-9.37-7.29c-2.86-1-6.37-1.08-8.57 1-1.13 1.07-1.79 2.6-3.05 3.51-1.83 1.3-4.31.92-6.54 1.18a12.47 12.47 0 00-9.4 7 17.61 17.61 0 00-.92 12c.43 1.7 1.07 3.34 1.53 5 1 3.52 1.2 7.21 2.32 10.68s3.43 6.87 6.93 7.91a21.91 21.91 0 012.23-11.29 3.24 3.24 0 011.58-1.76 3.82 3.82 0 011.9 0 19 19 0 0012.65-2.56c1.33-.8 3.4-3.56 4.81-3.83 1.82-.31 5.55 1.88 7.45 2.3z" opacity=".1"/><path d="M794.16 314.07a10 10 0 004.16.26 6.85 6.85 0 005.06-6.53 10 10 0 00-3.85-7.71c-1.58-1.32-3.47-2.25-4.92-3.72-1.71-1.75-2.65-4.09-4-6.15a18.25 18.25 0 00-9.37-7.29c-2.86-1-6.37-1.08-8.57 1-1.13 1.07-1.79 2.6-3.05 3.51-1.83 1.3-4.31.92-6.54 1.18a12.47 12.47 0 00-9.4 7 17.61 17.61 0 00-.92 12c.43 1.7 1.07 3.34 1.53 5 1 3.52 1.2 7.21 2.32 10.68s3.43 6.87 6.93 7.91a21.91 21.91 0 012.25-11.28 3.24 3.24 0 011.58-1.76 3.82 3.82 0 011.9 0 19 19 0 0012.65-2.56c1.33-.8 3.4-3.56 4.81-3.83 1.8-.32 5.53 1.87 7.43 2.29z" fill="#503f43"/><path d="M980.51 252.42l-15.24 170.7-68.5 19-68.31-19-15.22-170.7h167.27z" fill="#e44d26"/><path d="M896.87 427.6l55.35-15.34 13-145.88h-68.35z" fill="#f16529"/><path d="M867.25 308.26h29.62v-20.94h-52.5l.5 5.62 5.15 57.7h46.86V329.7h-27.71zm4.76 52.85h-21l2.93 32.88 42.84 11.94h.1v-21.85h-.09l-23.32-6.3-1.46-16.67z" fill="#ebebeb"/><path d="M828.81 206.02h10.64v10.51h9.73v-10.51h10.64v31.84h-10.64V227.2h-9.73v10.66h-10.64v-31.84zm45 10.56h-9.37v-10.56h29.38v10.56h-9.37v21.28h-10.63v-21.28zm24.68-10.56h11.1l6.83 11.19 6.82-11.19h11.1v31.84h-10.6v-15.78l-7.32 11.32h-.18l-7.33-11.32v15.78h-10.42zm41.14 0h10.64v21.31h15v10.52h-25.61v-31.83z"/><path d="M896.8 350.64h25.78l-2.43 27.16-23.35 6.3v21.83l42.93-11.9.31-3.54 4.92-55.13.51-5.62H896.8v20.94zm0-42.43v.05h50.58l.42-4.71 1-10.62.5-5.62h-52.5v20.89z" fill="#fff"/><path d="M451.72 463.51c-1.95-5.71-4.76-13-7-14.66a2.09 2.09 0 00-.44-.27H444v-7.05l-5.26.84a50.27 50.27 0 01-1.91-7.81 3.63 3.63 0 003.95.79c-.09-.14-.16-.29-.24-.44l.24-.1a9.77 9.77 0 01-1.27-4.79 17.44 17.44 0 01.73-4.52c.94-3.25 2.53-6.29 3.42-9.55a23.22 23.22 0 00.8-6.46 23.54 23.54 0 00-2.46-10.65 6.22 6.22 0 00-1.86-2.43 24 24 0 00-2.28-1.11 12.31 12.31 0 01-3.31-3.3 29.74 29.74 0 00-14.37-9.59 8.41 8.41 0 00-4.59-.36c-3.53 1-4.82 5.33-7.68 7.62-2.53 2-6 2.23-9.16 2.91a15.58 15.58 0 00-8.53 4.47 9.26 9.26 0 00-2.29 6.18 6.21 6.21 0 002.53 5.52 7.93 7.93 0 006.7.95 22.79 22.79 0 0017.25 28.65l.62 1.1a47.19 47.19 0 014.27 11.17c-4.84 2.75-10.13 5.32-13.32 5.56a22.45 22.45 0 01-.69 3.69 20.37 20.37 0 01-4.19 8.25c-4.34 4.88-23.87 41.78-23.87 41.78s-.62 1.47-1.62 4c-12.13 1.49-31.92 3.64-37.45 2.53l-21.7-20.62s-7 5.35-6.4 11.85l-3.91-3.72s-20.62 15.73 11.94 26l49.54 5.75c-4.72 14.24-9.12 30.81-7.76 39.83h.41a18.73 18.73 0 002.83-.22l-.09 1.6-4.77 85.43s-1.09 15.73 13.56 22.79c0 0 17.91 52.63 10.85 58.6 0 0 .84.44 2.25 1.06l-14.73 13s-10.85 2.71-16.82 2.17a4.31 4.31 0 00-4.76 3.21c0 .11 0 .22-.06.34V764.55c0 .12 0 .23.07.35v.13q.05.19.12.37v.12c.05.12.11.24.17.36v.08c.07.12.14.24.22.36l.07.1q.13.19.29.38l.08.1c.11.13.23.25.36.38h.06l.4.34.09.07.49.35.12.08.57.33h.09l.61.3h.09l.71.29.15.06.79.26h.13l.85.22h.07l1 .19h.19l1 .15h.19l1.15.11c2.23.17 5.24.23 8.72.22s0 .09 0 .13v.43c0 .12 0 .23.07.35v.13q.05.19.12.37v.12c.05.12.11.24.17.36v.08c.07.12.14.24.22.36l.07.1q.13.19.29.38l.08.1c.11.13.23.25.36.38h.05l.4.34.09.07.49.35.12.08.56.33h.09l.61.3h.09l.71.29.15.06.79.26h.13l.85.22h.07l1 .19h.19l1 .15h.19l1.15.11c14.11 1.09 59.14-2.17 59.14-2.17V773.83c.45-2.1 2.61-14.31-5.07-23.34.23-.24.45-.49.66-.75 0 0-6-10.31-2.71-13.56S413.63 677 413.63 677s-10.31-16.28-4.34-34.73-.54-38.52-.54-38.52S423 599.53 423.26 582v-1.63a5.76 5.76 0 00.9.06 4.21 4.21 0 00.6 0s-2.71-9.77.54-16.82 10.31-.54 16.82-29.3c4.71-20.81 8.85-44.74 10.79-56.39a29.69 29.69 0 00-1.19-14.41zm-123.82 61l-4.95-4.7c1.64.68 3.46 1.34 5.49 2l18.65 2.19c-8.32.75-16.09 1.17-19.19.54z" transform="translate(-84.99 -85.07)" fill="url(#b)"/><path d="M290.14 436.7s-38.38 5.33-46.38 3.73l-21.32-20.26s-20.26 15.46 11.73 25.59l59.7 6.93z" fill="#fdc2cc"/><path d="M290.14 436.7s-38.38 5.33-46.38 3.73l-21.32-20.26s-20.26 15.46 11.73 25.59l59.7 6.93z" opacity=".05"/><path d="M215.01 450.15l-82.94-23-18.48-207.3h203.09l-18.5 207.27-83.17 23.03z" fill="#264de4"/><path d="M282.34 413.93l15.81-177.12h-83v195.71l67.19-18.59z" fill="#2965f1"/><path d="M156.01 313.66l2.28 25.42h56.9v-25.42zm-4.58-51.46l2.31 25.42h61.44V262.2h-63.8zm63.75 117.49h-.11l-28.32-7.65-1.81-20.28h-25.57l3.56 39.92 52.08 14.49h.12z" fill="#ebebeb"/><path d="M161.39 163.49h30.79v12.88h-17.92v12.88h17.92v12.88h-30.79zm37 0h30.79v11.2h-17.96v2.24h17.92v25.76h-30.8v-11.76h17.92v-2.24h-17.92v-25.2zm37 0h30.79v11.2h-18.01v2.24h17.92v25.76h-30.8v-11.76h17.92v-2.24h-17.92v-25.2z"/><path d="M274.15 313.66l4.59-51.46h-63.73v25.42h35.83l-2.31 26h-33.52v25.42h31.31l-3 33-28.31 7.67v26.45l52.12-14.45.38-4.3 6-66.94.62-6.83z" fill="#fff"/><path d="M304.01 653.12l-18.66 16.52s-10.66 2.67-16.52 2.13-8.53 9.06 5.33 10.13 58.1-2.13 58.1-2.13 4.26-17.06-8.53-26.65z" fill="#47465a"/><path d="M304.01 653.12l-18.66 16.52s-10.66 2.67-16.52 2.13-8.53 9.06 5.33 10.13 58.1-2.13 58.1-2.13 4.26-17.06-8.53-26.65z" opacity=".05"/><path d="M332.92 672.4a29.4 29.4 0 01-.67 5.78s-44.24 3.2-58.1 2.13c-6.67-.51-9.5-3-10-5.38-.61 2.74 1.81 6.35 10 7 13.86 1.07 58.1-2.13 58.1-2.13a30.8 30.8 0 00.67-7.4z" fill="#fff" opacity=".3"/><path d="M325.85 350.93s11.73 16.52 7.46 27.72 22.39-11.73 22.39-11.73-8.53-14.99-4.26-30.99z" fill="#fdc2cc"/><path d="M322.65 659.52l-18.64 16.52s-10.66 2.67-16.52 2.13-8.53 9.06 5.33 10.13 58.1-2.13 58.1-2.13 4.26-17.06-8.53-26.65z" fill="#47465a"/><path d="M328.01 655.79c-2.78 3.43-6.7 4.75-10.8 4.95-9.32.44-19.58-4.95-19.58-4.95 6.93-5.86-10.66-57.57-10.66-57.57-14.39-6.93-13.33-22.39-13.33-22.39l4.66-83.9 1.18-21.08 14.93-9.06 11.76 9 11.16 8.56a44.86 44.86 0 011.4 8.32c1.3 19.59-14.19 24.2-14.19 24.2s6.4 19.72.53 37.85 4.26 34.12 4.26 34.12 19.19 55.44 16 58.64 2.68 13.31 2.68 13.31z" fill="#565171"/><path d="M328.01 655.79c-2.78 3.43-6.7 4.75-10.8 4.95-9.32.44-19.58-4.95-19.58-4.95 6.93-5.86-10.66-57.57-10.66-57.57-14.39-6.93-13.33-22.39-13.33-22.39l4.66-83.9 1.18-21.08 14.93-9.06 11.76 9 11.16 8.56a44.86 44.86 0 011.4 8.32c1.3 19.59-14.19 24.2-14.19 24.2s6.4 19.72.53 37.85 4.26 34.12 4.26 34.12 19.19 55.44 16 58.64 2.68 13.31 2.68 13.31z" opacity=".05"/><path d="M346.64 662.18c-9.06 11.19-30.38 0-30.38 0a3.4 3.4 0 00.93-1.45C321.1 650.1 304 599.28 304 599.28c-14.39-6.93-16-23.45-16-23.45l-3.77-85.42-.49-11.06 22.43-8.56 6.89-2.63 22.95 17.59a41.57 41.57 0 011.44 11.18c-.29 17.21-14.26 21.37-14.26 21.37s6.4 19.72.53 37.85 4.29 34.07 4.29 34.07 19.19 55.44 16 58.64 2.63 13.32 2.63 13.32z" fill="#565171"/><path d="M337.45 496.93c-4.61-.66-13.94-6.21-18.73-9.22-1.83-1.15-3-1.92-3-1.92s-4.8-13.33-17.59-3.2a47.89 47.89 0 01-13.9 7.86 32.52 32.52 0 01-5.93 1.49l1.18-21.08 14.93-9.06 11.76 9 6.89-2.63 22.95 17.58a41.57 41.57 0 011.44 11.18z" opacity=".1"/><path d="M366.3 394.64c-1.9 11.44-6 35-10.6 55.39-6.4 28.25-13.33 21.85-16.52 28.78s-.53 16.52-.53 16.52c-5.33.53-22.92-11.19-22.92-11.19s-4.8-13.33-17.59-3.2-22.92 9.59-22.92 9.59c-2.67-17.59 17.06-64.5 17.06-64.5s19.19-36.25 23.45-41a20 20 0 004.12-8.1 22.05 22.05 0 00.68-3.62c6.93-.53 24-12.26 24-12.26l13.33-2.13v6.93a2 2 0 01.44.27c2.19 1.67 5 8.79 6.87 14.4a29.17 29.17 0 011.13 14.12z" fill="#e1a0a7"/><path d="M304.01 444.7l-6.89-.8-52.81-6.13c-32-10.13-11.73-25.59-11.73-25.59l21.32 20.26c6.15 1.23 30.28-1.64 41.09-3 3.24-.42 5.29-.7 5.29-.7z" fill="#fdc2cc"/><path d="M355.7 372.74s-13.86-11.19-34.69 25.05-25.59 30.38-25.59 30.38 4.26 16 2.13 19.19c0 0 14.39-1.07 19.72 0s38.38-40.51 38.38-40.51 17.11-23.45.05-34.11z" opacity=".1"/><path d="M355.17 370.61s-13.86-11.19-34.65 25.05-25.59 30.38-25.59 30.38 16.52 18.12 21.85 19.19 38.38-40.51 38.38-40.51 17.07-23.45.01-34.11z" opacity=".1"/><path d="M297.11 443.93c.22-3.95-1.27-10.89-2.13-14.49 3.24-.42 5.29-.7 5.29-.7l3.73 16z" opacity=".1"/><path d="M355.7 371.67s-13.86-11.19-34.69 25.06-25.59 30.38-25.59 30.38 4.26 16 2.13 19.19c0 0 14.39-1.07 19.72 0s38.38-40.51 38.38-40.51 17.11-23.46.05-34.12z" fill="#e1a0a7"/><path d="M352.01 337.02l-25.63 14.91a54.69 54.69 0 013 4.88 22.49 22.49 0 004.48.45c6.83 0 10-7.17 14.13-12-.3-3.84 2.84-3.94 4.02-8.24z" opacity=".1"/><circle cx="333.31" cy="333.83" r="22.39" fill="#fdc2cc"/><path d="M305.01 315.72a15.3 15.3 0 018.38-4.4c3.11-.67 6.52-.87 9-2.86 2.81-2.25 4.07-6.53 7.54-7.49a8.27 8.27 0 014.51.36 29.21 29.21 0 0114.12 9.42 12.09 12.09 0 003.26 3.25 23.6 23.6 0 012.24 1.09 6.11 6.11 0 011.82 2.39 23.18 23.18 0 011.62 16.27c-.87 3.21-2.43 6.19-3.36 9.39s-1.16 6.82.53 9.68c-1.64.84-3.71-.22-4.74-1.75s-1.34-3.41-1.88-5.18a19.75 19.75 0 00-5.78-9c-1.68-1.48-4.68-2.48-5.85-.57-.45.74-.42 1.69-.81 2.46-.76 1.51-3 1.81-4.43 1a6.79 6.79 0 01-2.77-4.11c-2.19-7.43-5.94-12.1-13.88-8.93-3 1.18-6.45 2-9.3 0-3.65-2.68-2.92-7.99-.22-11.02z" opacity=".1"/><path d="M305.01 315.18a15.3 15.3 0 018.38-4.4c3.11-.67 6.52-.87 9-2.86 2.81-2.25 4.07-6.53 7.54-7.49a8.27 8.27 0 014.51.36 29.21 29.21 0 0114.12 9.42 12.09 12.09 0 003.26 3.25 23.6 23.6 0 012.24 1.09 6.11 6.11 0 011.82 2.39 23.18 23.18 0 011.62 16.27c-.87 3.21-2.43 6.19-3.36 9.39s-1.16 6.82.53 9.68c-1.64.84-3.71-.22-4.74-1.75s-1.34-3.41-1.88-5.18a19.75 19.75 0 00-5.78-9c-1.68-1.48-4.68-2.48-5.85-.57-.45.74-.42 1.69-.81 2.46-.76 1.51-3 1.81-4.43 1a6.79 6.79 0 01-2.77-4.11c-2.19-7.43-5.94-12.1-13.88-8.93-3 1.18-6.45 2-9.3 0-3.65-2.67-2.92-7.98-.22-11.02z" fill="#8f5a6a"/><path d="M358.27 366.08h-10.83s-21.32 10.66-21.85 10.13c-.36-.36-3.66.26-5.75.69a22.05 22.05 0 00.68-3.62c6.93-.53 24-12.26 24-12.26l13.33-2.13v6.93a2 2 0 01.42.26z" opacity=".05"/><path d="M351.57 678.79a29.4 29.4 0 01-.67 5.78s-44.24 3.2-58.1 2.13c-6.67-.51-9.5-3-10-5.38-.61 2.74 1.81 6.35 10 7 13.86 1.07 58.1-2.13 58.1-2.13a30.8 30.8 0 00.67-7.4z" fill="#fff" opacity=".3"/><g opacity=".05"><path d="M293.07 480.41c-7.19 5.7-13.55 8-17.73 9 0 .4.08.79.14 1.17 0 0 10.13.53 22.92-9.59a17.18 17.18 0 016.85-3.58c-2.79-1.37-6.77-1.28-12.18 3zM365.41 380.47c-1.91-5.61-4.68-12.72-6.87-14.4a2 2 0 00-.44-.27s-4.41.15-4.26.27c2.19 1.67 4.33 8.26 6.24 13.86a29.17 29.17 0 011.16 14.16c-1.9 11.44-6 35-10.6 55.39-6.4 28.25-13.33 21.85-16.52 28.78-2.62 5.68-1.31 13.14-.74 15.65a13.41 13.41 0 005.54 1.41s-2.67-9.59.53-16.52 10.13-.53 16.52-28.78c4.63-20.44 8.7-44 10.6-55.39a29.17 29.17 0 00-1.16-14.16z"/></g><path d="M427.36 480.04a11.67 11.67 0 003.83-5.78c.5-2.3-.48-5.05-2.68-5.89-2.46-.94-5.09.76-7.08 2.49s-4.28 3.69-6.89 3.32a10.48 10.48 0 003.24-9.81 4.1 4.1 0 00-.9-2c-1.37-1.46-3.84-.83-5.48.32-5.2 3.66-6.65 10.72-6.68 17.08-.52-2.29-.08-4.68-.1-7s-.66-5-2.64-6.22a8 8 0 00-4-.95c-2.34-.09-4.94.15-6.54 1.86-2 2.12-1.47 5.69.26 8s4.35 3.8 6.77 5.42a15 15 0 014.84 4.61 4.57 4.57 0 01.36.82h14.65a40.83 40.83 0 009.04-6.27zM454.27 667.81c2.33-2.17 4.52-4.73 5.2-7.84s-.65-6.85-3.63-8c-3.33-1.28-6.9 1-9.6 3.37s-5.8 5-9.33 4.5a14.21 14.21 0 004.39-13.3 5.56 5.56 0 00-1.22-2.7c-1.85-2-5.21-1.13-7.42.43-7 5-9 14.53-9.05 23.15-.71-3.11-.11-6.35-.13-9.54s-.89-6.72-3.58-8.44a10.79 10.79 0 00-5.46-1.28c-3.17-.12-6.7.2-8.86 2.52-2.69 2.88-2 7.71.35 10.88s5.9 5.16 9.17 7.35a20.34 20.34 0 016.55 6.25 6.19 6.19 0 01.49 1.12h19.87a55.36 55.36 0 0012.26-8.47z" fill="#6c63ff"/></svg>